<?xml version="1.0" encoding="UTF-8"?>
<svg width="284px" height="276px" viewBox="0 0 284 276" version="1.1" xmlns="http://www.w3.org/2000/svg" xmlns:xlink="http://www.w3.org/1999/xlink">
    <!-- Generator: Sketch 47.1 (45422) - http://www.bohemiancoding.com/sketch -->
    <title>Group</title>
    <desc>Created with Sketch.</desc>
    <defs></defs>
    <g id="Page-1" stroke="none" stroke-width="1" fill="none" fill-rule="evenodd">
        <g id="Group" fill="#FFFFFF">
            <path d="M222.327765,111.5592 L183.256765,111.5592 C176.743765,111.5592 169.809765,112.3122 165.449765,106.2552 C164.041765,104.3002 163.432765,101.9502 162.696765,99.6892 C161.701765,96.6322 160.706765,93.5762 159.711765,90.5192 L152.079765,67.0702 C151.376765,64.9102 150.673765,62.7502 149.970765,60.5892 C148.694765,56.6702 145.752765,53.6462 141.330765,53.8472 C137.275765,54.0312 134.639765,56.9112 133.454765,60.5322 C132.667765,62.9342 131.880765,65.3372 131.094765,67.7392 C128.521765,75.5952 125.948765,83.4522 123.376765,91.3092 L120.527765,100.0102 C119.692765,102.5582 118.965765,105.1022 117.151765,107.1792 C112.542765,112.4582 105.728765,111.5592 99.4457652,111.5592 L74.6737652,111.5592 L65.4967652,111.5592 C63.8207652,111.5592 61.8707652,111.3182 60.2587652,111.6902 C53.8317652,113.1702 51.6147652,121.5582 56.5037652,126.0122 C57.7667652,127.1632 59.2827652,128.1062 60.6597652,129.1092 C66.9397652,133.6852 73.2207652,138.2602 79.5007652,142.8362 C84.1987652,146.2582 88.8967652,149.6812 93.5957652,153.1042 C97.9887652,156.3052 100.267765,161.4802 98.8427652,166.9012 C98.3737652,168.6812 97.6467652,170.4642 97.0757652,172.2172 C92.8997652,185.0502 88.7237652,197.8842 84.5477652,210.7182 C82.9507652,215.6262 85.6277652,221.0472 90.9357652,221.9592 C94.1637652,222.5132 96.4707652,220.9982 98.8937652,219.2402 C104.381765,215.2562 109.870765,211.2732 115.359765,207.2892 L132.617765,194.7652 C135.511765,192.6652 138.420765,190.9772 142.178765,191.1112 C145.725765,191.2382 148.383765,193.0182 151.113765,195.0042 C162.309765,203.1472 173.506765,211.2892 184.702765,219.4322 C187.304765,221.3242 190.039765,222.6792 193.380765,221.6582 C198.228765,220.1752 200.196765,215.0882 198.702765,210.5012 C196.846765,204.8012 194.989765,199.1002 193.133765,193.4002 L186.012765,171.5372 C185.366765,169.5522 184.464765,167.4192 184.169765,165.3642 C183.418765,160.1482 186.004765,155.8102 190.091765,152.8392 C201.206765,144.7602 212.320765,136.6822 223.434765,128.6032 C224.692765,127.6892 226.214765,126.7912 227.294765,125.6772 C232.008765,120.8112 229.033765,112.3912 222.327765,111.5592" id="Fill-1"></path>
            <path d="M236.961365,135.0418 C235.232365,136.8268 233.431365,138.0568 232.118365,138.9568 C231.855365,139.1358 231.595365,139.3108 231.349365,139.4888 L198.004365,163.7258 C197.864365,163.8278 197.748365,163.9218 197.655365,164.0038 C197.800365,164.4508 198.009365,165.0428 198.165365,165.4888 C198.390365,166.1268 198.610365,166.7568 198.812365,167.3758 L211.499365,206.3358 C213.404365,212.1828 212.911365,218.5808 210.149365,223.8898 C207.470365,229.0418 202.911365,232.8178 197.313365,234.5288 C195.281365,235.1508 193.190365,235.4678 191.105365,235.4678 L191.103365,235.4678 C184.621365,235.4658 179.829365,232.5288 176.789365,230.3188 L143.197365,205.8878 C142.917365,205.6838 142.259365,205.2068 141.706365,204.8448 C141.424365,205.0228 141.040365,205.2808 140.525365,205.6558 L106.798365,230.1338 C104.388365,231.8838 99.3623652,235.5328 92.2653652,235.5328 C91.0703652,235.5328 89.8563652,235.4288 88.6583652,235.2248 C82.4603652,234.1608 77.0523652,230.4768 73.8183652,225.1208 C70.4693652,219.5738 69.7143652,212.8058 71.7493652,206.5558 L84.2773652,168.0518 C84.5213652,167.3028 84.7873652,166.5488 85.0573652,165.7918 C85.2713652,165.1908 85.4943652,164.5918 85.6803652,163.9898 C85.6763652,163.9878 52.7333652,139.9878 52.7333652,139.9878 C52.4113652,139.7528 52.0813652,139.5248 51.7493652,139.2928 C50.5193652,138.4368 48.9893652,137.3728 47.4393652,135.9608 C41.4683652,130.5218 39.0463652,122.2338 41.1163652,114.3328 C43.1873652,106.4258 49.3653652,100.3878 57.2363652,98.5748 C58.8713652,98.1978 60.5453652,98.0228 62.5093652,98.0228 C63.1923652,98.0228 63.8823652,98.0458 64.5623652,98.0728 C64.8823652,98.0848 65.1963652,98.0998 65.4963652,98.0998 L99.4453652,98.0998 C100.320365,98.0998 101.205365,98.1148 102.093365,98.1308 C102.825365,98.1438 103.560365,98.1578 104.293365,98.1578 C105.683365,98.1578 106.515365,98.0948 107.003365,98.0298 C107.175365,97.5538 107.371365,96.9498 107.531365,96.4558 L120.662365,56.3468 C123.745365,46.9318 131.431365,40.8228 140.720365,40.4008 C141.066365,40.3858 141.407365,40.3778 141.744365,40.3778 C151.344365,40.3778 159.597365,46.6768 162.768365,56.4258 L175.843365,96.6138 C175.978365,97.0448 176.144365,97.5698 176.291365,97.9948 C176.837365,98.0668 177.766365,98.1298 179.338365,98.1298 C179.338365,98.1298 182.558365,98.0998 183.257365,98.0998 L223.160365,98.0998 L223.985365,98.2028 C232.187365,99.2208 239.008365,104.7488 241.787365,112.6298 C244.565365,120.5138 242.716365,129.1008 236.961365,135.0418 M254.480365,108.1548 C249.993365,95.4278 238.943365,86.4958 225.654365,84.8478 L223.998365,84.6398 L186.100365,84.6398 L175.567365,52.2618 C170.558365,36.8668 157.282365,26.9188 141.744365,26.9188 C141.213365,26.9188 140.678365,26.9308 140.110365,26.9558 C125.319365,27.6278 112.666365,37.5208 107.871365,52.1588 L97.2373652,84.6398 L65.5483652,84.6418 L65.0893652,84.6238 C64.2363652,84.5908 63.3673652,84.5638 62.5093652,84.5638 C59.5423652,84.5638 56.8303652,84.8568 54.2153652,85.4598 C41.4493652,88.3998 31.4403652,98.1568 28.0963652,110.9218 C24.7533652,123.6818 28.6923652,137.0898 38.3763652,145.9108 C40.5783652,147.9168 42.6753652,149.3748 44.2203652,150.4508 L44.8083652,150.8658 C57.1663652,159.8698 64.9193652,165.5178 69.7933652,169.0678 L58.9503652,202.3898 C55.7063652,212.3588 56.9253652,223.1808 62.2973652,232.0788 C67.5543652,240.7818 76.3313652,246.7638 86.3993652,248.4928 C88.3453652,248.8248 90.3193652,248.9908 92.2653652,248.9908 C103.735365,248.9908 111.707365,243.2018 114.704365,241.0258 L141.694365,221.4378 L168.877365,241.2058 C171.503365,243.1168 179.495365,248.9238 191.105365,248.9268 C194.522365,248.9268 197.935365,248.4138 201.248365,247.4008 C210.330365,244.6238 217.732365,238.4798 222.089365,230.1038 C226.507365,221.6088 227.313365,211.4268 224.297365,202.1668 L213.523365,169.0848 L239.226365,150.4018 L239.744365,150.0468 C241.322365,148.9658 243.964365,147.1568 246.628365,144.4068 C255.958365,134.7768 258.967365,120.8858 254.480365,108.1548" id="Fill-3"></path>
            <path d="M256.294365,153.772 C252.685365,157.496 249.214365,159.874 247.349365,161.151 L246.994365,161.395 L229.350365,174.22 L237.094365,197.999 C241.221365,210.671 240.105365,224.634 234.028365,236.314 C227.992365,247.92 217.749365,256.429 205.183365,260.273 C200.597365,261.675 195.860365,262.385 191.105365,262.385 C180.488365,262.382 170.346365,258.919 160.959365,252.089 L141.686365,238.074 L122.609365,251.917 C119.027365,254.521 108.111365,262.449 92.2653652,262.449 C89.5603652,262.449 86.8253652,262.218 84.1383652,261.761 C70.2073652,259.368 58.0543652,251.087 50.7773652,239.038 C43.3813652,226.788 41.6973652,211.913 46.1513652,198.223 L53.9713652,174.193 L36.8833652,161.744 L36.4573652,161.446 C34.7803652,160.277 32.1583652,158.453 29.3123652,155.86 C15.9153652,143.658 10.4603652,125.131 15.0763652,107.51 C19.6943652,89.886 33.5343652,76.411 51.1953652,72.344 C54.8123652,71.51 58.5133652,71.104 62.5093652,71.104 C63.5433652,71.104 64.5913652,71.135 65.6193652,71.175 L87.4813652,71.182 L95.0813652,47.97 C101.633365,27.965 119.068365,14.439 139.499365,13.51 C140.302365,13.476 141.026365,13.459 141.744365,13.459 C163.219365,13.459 181.519365,27.055 188.365365,48.098 L195.875365,71.181 L224.838365,71.181 L227.327365,71.493 C245.702365,73.773 260.977365,86.107 267.173365,103.679 C273.369365,121.257 269.199365,140.451 256.294365,153.772 M279.866365,99.203 C271.962365,76.786 252.465365,61.05 229.001365,58.138 L225.679365,57.722 L205.649365,57.722 L201.164365,43.934 C192.481365,17.245 169.158365,0 141.744365,0 C140.847365,0 139.940365,0.021 138.888365,0.065 C112.815365,1.249 90.5993652,18.41 82.2903652,43.782 L77.7273652,57.72 L65.8793652,57.716 C64.7623652,57.674 63.6293652,57.645 62.5093652,57.645 C57.4843652,57.645 52.7953652,58.163 48.1743652,59.228 C25.6193652,64.423 7.94836518,81.616 2.05636518,104.1 C-3.83263482,126.58 3.13936518,150.226 20.2473652,165.808 C23.7343652,168.985 26.8733652,171.171 28.7373652,172.471 L38.1503652,179.319 L33.3533652,194.06 C27.6883652,211.468 29.8393652,230.398 39.2553652,245.996 C48.5543652,261.392 64.0833652,271.973 81.8823652,275.029 C85.3143652,275.613 88.8073652,275.908 92.2653652,275.908 C105.687365,275.908 118.559365,271.5 130.514365,262.811 L141.678365,254.708 L153.040365,262.971 C164.775365,271.51 177.580365,275.84 191.105365,275.843 C197.200365,275.843 203.261365,274.934 209.120365,273.142 C225.166365,268.234 238.254365,257.361 245.968365,242.525 C253.700365,227.665 255.130365,209.915 249.892365,193.83 L245.177365,179.354 L254.955365,172.255 C257.050365,170.82 261.409365,167.834 265.960365,163.137 C282.442365,146.125 287.769365,121.626 279.866365,99.203" id="Fill-5"></path>
        </g>
    </g>
</svg>