<?xml version="1.0" encoding="UTF-8"?>
<svg width="3000px" height="718px" viewBox="0 0 3000 718" version="1.1" xmlns="http://www.w3.org/2000/svg" xmlns:xlink="http://www.w3.org/1999/xlink">
    <!-- Generator: Sketch 48.2 (47327) - http://www.bohemiancoding.com/sketch -->
    <title>Group 24</title>
    <desc>Created with Sketch.</desc>
    <defs></defs>
    <g id="Page-1" stroke="none" stroke-width="1" fill="none" fill-rule="evenodd">
        <g id="Group-24" transform="translate(0.000000, -1.000000)" fill="#FFFFFE">
            <path d="M578.117284,291.616667 L476.524691,291.616667 C459.592593,291.616667 441.561728,293.573457 430.222222,277.826543 C426.567901,272.740123 424.981481,266.635185 423.067901,260.752469 C420.481481,252.808025 417.888889,244.857407 415.302469,236.90679 C408.691358,216.585802 402.074074,196.258642 395.462963,175.937654 C393.635802,170.32037 391.802469,164.703086 389.975309,159.085802 C386.660494,148.894444 379.006173,141.030247 367.512346,141.554938 C356.969136,142.03642 350.117284,149.524074 347.030864,158.937654 C344.987654,165.184568 342.938272,171.431481 340.895062,177.678395 C334.203704,198.104321 327.518519,218.53642 320.82716,238.962346 C318.358025,246.505556 315.888889,254.042593 313.419753,261.585802 C311.246914,268.215432 309.358025,274.826543 304.641975,280.227778 C292.660494,293.956173 274.938272,291.616667 258.604938,291.616667 L194.191358,291.616667 L170.333333,291.616667 C165.975309,291.616667 160.901235,290.99321 156.709877,291.956173 C140,295.808025 134.234568,317.616667 146.944444,329.196914 C150.234568,332.190741 154.17284,334.641358 157.753086,337.252469 C174.08642,349.147531 190.41358,361.042593 206.740741,372.943827 C218.95679,381.838889 231.179012,390.740123 243.395062,399.641358 C254.814815,407.962346 260.740741,421.419136 257.037037,435.517901 C255.814815,440.141358 253.925926,444.77716 252.444444,449.338889 L219.87037,549.443827 C215.716049,562.209259 222.679012,576.301852 236.475309,578.672222 C244.87037,580.116667 250.87037,576.178395 257.166667,571.604321 C271.438272,561.246296 285.709877,550.888272 299.981481,540.530247 C314.944444,529.678395 329.901235,518.82037 344.858025,507.968519 C352.382716,502.505556 359.944444,498.116667 369.716049,498.462346 C378.938272,498.795679 385.851852,503.425309 392.950617,508.585802 L480.290123,572.104321 C487.055556,577.024074 494.166667,580.548765 502.851852,577.894444 C515.45679,574.03642 520.574074,560.808025 516.691358,548.882099 C511.864198,534.061111 507.037037,519.240123 502.209877,504.419136 C496.037037,485.468519 489.864198,466.517901 483.691358,447.567284 C482.012346,442.40679 479.666667,436.86358 478.901235,431.517901 C476.944444,417.956173 483.67284,406.678395 494.302469,398.95 C523.197531,377.943827 552.098765,356.937654 580.993827,335.931481 C584.265432,333.554938 588.222222,331.221605 591.030864,328.326543 C603.290123,315.672222 595.555556,293.77716 578.117284,291.616667" id="Fill-4"></path>
            <path d="M616.166667,352.675309 C611.666667,357.317284 606.987654,360.514815 603.574074,362.854321 C602.888889,363.323457 602.216049,363.774074 601.574074,364.237037 L514.87037,427.261728 C514.506173,427.520988 514.203704,427.767901 513.962963,427.983951 C514.339506,429.144444 514.882716,430.681481 515.290123,431.841975 C515.876543,433.502469 516.450617,435.138272 516.975309,436.749383 L549.962963,538.051852 C554.91358,553.255556 553.635802,569.891358 546.450617,583.693827 C539.487654,597.088889 527.62963,606.909877 513.074074,611.360494 C507.790123,612.971605 502.358025,613.798765 496.932099,613.798765 C480.074074,613.792593 467.617284,606.15679 459.709877,600.409877 L372.364198,536.885185 C371.635802,536.354321 369.925926,535.11358 368.487654,534.175309 C367.753086,534.638272 366.759259,535.304938 365.41358,536.28642 L277.722222,599.928395 C271.45679,604.477778 258.388889,613.971605 239.932099,613.971605 C236.82716,613.971605 233.67284,613.7 230.555556,613.169136 C214.438272,610.397531 200.376543,600.823457 191.969136,586.897531 C183.259259,572.471605 181.296296,554.87284 186.58642,538.625926 L219.166667,438.508642 C219.796296,436.558025 220.487654,434.595062 221.191358,432.632099 C221.746914,431.07037 222.32716,429.508642 222.808642,427.946914 C222.802469,427.940741 137.141975,365.533333 137.141975,365.533333 C136.308642,364.922222 135.450617,364.32963 134.58642,363.730864 C131.388889,361.502469 127.407407,358.737037 123.376543,355.064198 C107.851852,340.922222 101.555556,319.37284 106.938272,298.82963 C112.320988,278.267901 128.382716,262.57037 148.851852,257.854321 C153.104938,256.87284 157.45679,256.422222 162.561728,256.422222 C164.339506,256.422222 166.135802,256.483951 167.901235,256.551852 C168.734568,256.582716 169.549383,256.619753 170.32716,256.619753 L258.604938,256.619753 C260.876543,256.619753 263.179012,256.65679 265.487654,256.7 C267.395062,256.737037 269.302469,256.767901 271.209877,256.767901 C274.820988,256.767901 276.987654,256.607407 278.253086,256.440741 C278.703704,255.2 279.209877,253.632099 279.623457,252.348148 L313.771605,148.058025 C321.790123,123.576543 341.771605,107.687654 365.925926,106.595062 C366.820988,106.551852 367.709877,106.533333 368.58642,106.533333 C393.549383,106.533333 415.006173,122.909877 423.253086,148.261728 L457.246914,252.755556 C457.604938,253.879012 458.030864,255.24321 458.41358,256.348148 C459.833333,256.533333 462.246914,256.7 466.339506,256.7 C466.339506,256.7 474.709877,256.619753 476.524691,256.619753 L580.283951,256.619753 L582.425926,256.885185 C603.753086,259.533333 621.487654,273.909877 628.716049,294.403704 C635.938272,314.897531 631.12963,337.230864 616.166667,352.675309 M661.716049,282.761728 C650.049383,249.669136 621.320988,226.446914 586.765432,222.162963 L582.462963,221.625926 L483.919753,221.625926 L456.530864,137.434568 C443.506173,97.4037037 408.987654,71.5395062 368.58642,71.5395062 C367.203704,71.5395062 365.814815,71.5703704 364.339506,71.6320988 C325.882716,73.3790123 292.981481,99.1012346 280.512346,137.162963 L252.864198,221.625926 L170.462963,221.625926 L169.271605,221.582716 C167.055556,221.496296 164.790123,221.422222 162.561728,221.422222 C154.851852,221.422222 147.796296,222.187654 140.993827,223.755556 C107.802469,231.397531 81.7777778,256.767901 73.0864198,289.959259 C64.3888889,323.138272 74.6296296,358.002469 99.8148148,380.934568 C105.537037,386.150617 110.993827,389.946914 115.006173,392.74321 L116.537037,393.823457 C148.67284,417.230864 168.82716,431.916049 181.5,441.150617 L153.308642,527.792593 C144.87037,553.712346 148.04321,581.848148 162.012346,604.990123 C175.679012,627.619753 198.5,643.169136 224.679012,647.669136 C229.740741,648.52716 234.87037,648.965432 239.932099,648.965432 C269.759259,648.965432 290.487654,633.909877 298.277778,628.249383 L368.45679,577.317284 L439.135802,628.718519 C445.962963,633.687654 466.746914,648.78642 496.932099,648.792593 C505.820988,648.792593 514.691358,647.459259 523.308642,644.82963 C546.919753,637.607407 566.166667,621.632099 577.493827,599.848148 C588.987654,577.761728 591.080247,551.28642 583.240741,527.212346 L555.222222,441.193827 L622.055556,392.61358 L623.401235,391.687654 C627.506173,388.879012 634.376543,384.175309 641.302469,377.02716 C665.561728,351.983951 673.388889,315.866667 661.716049,282.761728" id="Fill-6"></path>
            <path d="M666.435802,401.37716 C657.053086,411.062346 648.028395,417.241358 643.176543,420.562346 L642.25679,421.198148 L596.374074,454.543827 L616.516049,516.370988 C627.244444,549.321605 624.34321,585.630247 608.540741,616.000617 C592.849383,646.17963 566.21358,668.303086 533.540741,678.296914 C521.614815,681.945062 509.293827,683.790741 496.935802,683.790741 C469.324691,683.784568 442.954321,674.778395 418.546914,657.019136 L368.435802,620.574691 L318.830864,656.568519 C309.522222,663.340123 281.139506,683.957407 239.935802,683.957407 C232.898765,683.957407 225.787654,683.352469 218.8,682.167284 C182.577778,675.945062 150.979012,654.414198 132.059259,623.087037 C112.824691,591.229012 108.448148,552.556173 120.028395,516.957407 L140.361728,454.475926 L95.9296296,422.105556 L94.8246914,421.327778 C90.4604938,418.290741 83.645679,413.55 76.2444444,406.803086 C41.4111111,375.080864 27.2259259,326.908025 39.2320988,281.087037 C51.2382716,235.259877 87.2197531,200.229012 133.145679,189.648765 C142.546914,187.482099 152.17037,186.426543 162.565432,186.426543 C165.250617,186.426543 167.979012,186.50679 170.651852,186.611728 L227.497531,186.630247 L247.25679,126.278395 C264.293827,74.2598765 309.62716,39.087037 362.750617,36.6734568 C364.837037,36.587037 366.719753,36.5376543 368.590123,36.5376543 C424.423457,36.5376543 472.009877,71.895679 489.812346,126.605556 L509.337037,186.624074 L584.645679,186.624074 L591.114815,187.438889 C638.898765,193.364815 678.614815,225.438889 694.725926,271.124074 C710.830864,316.833951 699.991358,366.741358 666.435802,401.37716 M727.725926,259.488272 C707.176543,201.198148 656.479012,160.284568 595.466667,152.710494 L586.830864,151.630247 L534.750617,151.630247 L523.090123,115.778395 C500.509877,46.3833333 439.867901,1.54382716 368.590123,1.54382716 C366.25679,1.54382716 363.898765,1.59938272 361.158025,1.71049383 C293.367901,4.79074074 235.602469,49.4141975 213.997531,115.383333 L202.133333,151.630247 L171.324691,151.617901 C168.423457,151.50679 165.47284,151.432716 162.565432,151.432716 C149.497531,151.432716 137.306173,152.778395 125.287654,155.55 C66.6395062,169.056173 20.6950617,213.759877 5.37407407,272.22284 C-9.9345679,330.673457 8.18888889,392.154938 52.6765432,432.673457 C61.7444444,440.932716 69.9049383,446.617901 74.7506173,449.994444 L99.2259259,467.803086 L86.7506173,506.130247 C72.0222222,551.395679 77.6148148,600.617901 102.102469,641.173457 C126.281481,681.210494 166.658025,708.72284 212.935802,716.667284 C221.861728,718.185802 230.941975,718.951235 239.935802,718.951235 C274.837037,718.951235 308.3,707.488272 339.38642,684.895679 L368.417284,663.827778 L397.960494,685.315432 C428.47284,707.512963 461.769136,718.772222 496.935802,718.778395 C512.781481,718.778395 528.540741,716.42037 543.775309,711.759877 C585.497531,698.994444 619.528395,670.72284 639.583951,632.148765 C659.688889,593.50679 663.411111,547.358642 649.787654,505.537654 L637.528395,467.895679 L662.954321,449.438889 C668.398765,445.704321 679.738272,437.938889 691.571605,425.729012 C734.423457,381.494444 748.275309,317.790741 727.725926,259.488272" id="Fill-8"></path>
            <path d="M879.108642,476.682716 C880.695062,475.540741 882.874074,475.935802 883.966667,477.553086 C902.88642,505.497531 937.651852,540.040741 1012.39259,540.040741 C1015.96049,540.040741 1030.84321,540.040741 1043.34938,536.948148 C1052.27531,535.096296 1092.26914,523.374074 1092.26914,482.62716 C1092.26914,478.306173 1091.67654,466.571605 1084.5284,456.701235 C1070.23827,436.948148 1033.22593,431.38642 1012.39259,426.448148 L962.380247,414.725926 C940.948148,409.781481 917.725926,404.84321 898.676543,394.349383 C879.028395,383.855556 838.546914,356.077778 838.546914,293.108642 C838.546914,283.232099 839.732099,254.837037 854.620988,228.911111 C873.67037,195.571605 919.516049,157.3 1004.65185,157.3 C1041.7321,157.3 1114.30617,163.330864 1172.33086,242.806173 C1173.4358,244.324691 1173.13951,246.491358 1171.65185,247.639506 L1112.46667,293.238272 C1110.84321,294.491358 1108.51605,294.059259 1107.42963,292.324691 C1093.39259,269.917284 1063.39259,230.75679 1000.48519,230.75679 C996.318519,230.75679 944.528395,231.34321 927.262963,265.293827 C923.695062,272.090123 922.503704,278.262963 922.503704,285.053086 C922.503704,292.460494 924.287654,298.633333 927.861728,304.806173 C937.985185,322.707407 959.997531,327.059259 998.695062,335.707407 L1042.15802,345.583951 C1082.04691,354.84321 1126.10247,367.188889 1154.08395,401.139506 C1165.99136,414.725926 1178.49136,434.479012 1178.49136,474.596296 C1178.49136,514.108642 1166.59012,544.355556 1137.41728,570.281481 C1086.80617,614.732099 1018.94198,615.349383 999.88642,615.349383 C974.88642,615.349383 894.509877,614.114815 836.164198,550.528395 C829.664198,543.232099 822.676543,533.88642 817.435802,524.830864 C816.546914,523.3 817.009877,521.349383 818.448148,520.318519 L879.108642,476.682716 Z" id="Fill-10"></path>
            <path d="M1384.1,591.365432 C1385.53827,593.316049 1384.63704,596.118519 1382.3284,596.865432 C1358.47037,604.55679 1339.85309,606.704938 1316.13086,606.704938 C1275.38395,606.704938 1254.3963,596.828395 1242.05062,582.01358 C1235.87778,574.606173 1233.40864,567.198765 1232.79136,564.112346 C1229.70494,554.235802 1229.08765,532.630864 1229.08765,505.47037 L1229.14321,361.155556 C1229.14321,359.192593 1227.55679,357.606173 1225.59383,357.606173 L1193.8037,357.606173 C1191.84074,357.606173 1190.25432,356.01358 1190.24815,354.05679 L1190.19877,292.964198 C1190.19877,291.001235 1191.78519,289.408642 1193.74815,289.408642 L1225.53827,289.408642 C1227.49506,289.408642 1229.08765,287.816049 1229.08765,285.853086 L1229.08765,189.248148 C1229.08765,187.285185 1230.68025,185.692593 1232.63704,185.692593 L1299.61235,185.692593 C1301.57531,185.692593 1303.1679,187.285185 1303.1679,189.248148 L1303.1679,285.853086 C1303.1679,287.816049 1304.75432,289.408642 1306.71728,289.408642 L1365.6679,289.408642 C1367.63086,289.408642 1369.21728,290.995062 1369.22346,292.958025 L1369.27284,354.050617 C1369.27284,356.01358 1367.68642,357.606173 1365.72346,357.606173 L1306.77284,357.606173 C1304.80988,357.606173 1303.22346,359.192593 1303.22346,361.155556 L1303.1679,488.180247 C1303.1679,500.532099 1301.31605,523.988889 1310.57531,533.859259 C1319.21728,543.741975 1333.52593,542.883951 1338.44568,542.211111 C1348.33457,540.853086 1350.07531,540.47037 1357.66173,538.816049 C1360.43333,538.254321 1361.68642,540.18642 1361.95185,541.674074 C1366.61235,565.488889 1378.47654,583.741975 1384.1,591.365432" id="Fill-12"></path>
            <path d="M1589.58519,459.421605 C1589.58519,458.15 1588.29506,457.341358 1587.12222,457.847531 C1575.09136,463.057407 1559.22099,464.483333 1530.93704,469.100617 C1514.27037,472.187037 1496.36914,474.347531 1480.93704,483.612963 C1470.44321,490.396914 1463.02963,498.057407 1463.02963,511.643827 C1463.02963,530.162346 1476.61605,548.06358 1513.65309,548.06358 C1554.4,548.06358 1578.47407,527.075926 1585.2642,512.878395 C1590.20247,502.995679 1589.58519,494.353704 1589.58519,484.47716 L1589.58519,459.421605 Z M1588.92469,593.069753 L1587.77037,580.112963 C1586.22716,581.366049 1585.77037,581.798148 1584.29506,582.946296 C1573.97407,590.989506 1564.9,595.224074 1559.33827,597.446296 C1538.96173,606.705556 1519.82593,611.65 1496.98642,611.65 C1482.1716,611.65 1426.60988,609.791975 1398.21481,564.112963 C1393.27654,556.088272 1384.01728,539.421605 1384.63457,514.730247 C1384.63457,497.440123 1388.95556,465.705556 1426.60988,440.396914 C1451.92469,423.112963 1475.99877,419.409259 1504.39383,413.853704 C1548.35679,404.940123 1564.56667,405.038889 1586.93086,399.15 C1588.44321,398.69321 1589.48642,397.353704 1589.56049,395.699383 C1589.42469,387.187037 1588.58519,373.582099 1585.2642,366.946296 C1579.09136,355.211728 1563.65926,345.952469 1536.49259,345.952469 C1508.09753,345.952469 1490.1963,354.594444 1482.1716,365.088272 C1475.28889,373.446296 1474.27654,382.970988 1474.15309,388.69321 C1474.10988,390.656173 1472.44938,392.156173 1470.48642,392.045062 L1402.29506,388.131481 C1400.36914,388.02037 1398.89383,386.396914 1399.01728,384.464815 C1399.99259,369.359877 1404.24568,339.730247 1432.16543,316.940123 C1451.30741,300.890741 1480.31975,288.545062 1534.02346,288.545062 C1584.64691,288.545062 1614.27654,299.038889 1633.41235,312.619136 C1646.38148,321.878395 1653.1716,332.372222 1655.64074,337.310494 C1663.65926,353.359877 1663.65926,374.964815 1663.65926,392.254938 L1663.65926,554.23642 C1663.65926,575.47716 1664.67778,583.057407 1674.04198,598.970988 C1675.4,601.291975 1673.7642,604.23642 1671.07284,604.23642 L1594.57901,604.242593 C1593.24568,604.242593 1592.12222,603.396914 1591.43086,602.261111 C1589.21481,598.631481 1589.23333,595.335185 1588.92469,593.069753 Z" id="Fill-14"></path>
            <path d="M1881.55309,361.216049 C1881.55309,363.148148 1880.04691,364.716049 1878.12099,364.734568 C1858.78765,364.944444 1805.72593,368.314815 1788.95432,421.512346 C1783.39877,438.796296 1783.39877,454.234568 1783.39877,472.135802 L1783.39877,600.716049 C1783.39877,602.660494 1781.81852,604.240741 1779.87407,604.240741 L1715.31235,604.240741 C1713.3679,604.240741 1711.78765,602.660494 1711.78765,600.716049 L1711.78765,299.104938 C1711.78765,297.154321 1713.3679,295.580247 1715.31235,295.580247 L1779.87407,295.580247 C1781.81852,295.580247 1783.39877,297.154321 1783.39877,299.104938 L1783.39877,327.802469 C1783.39877,330.117284 1783.56543,332.141975 1790.31235,325.197531 C1792.8,322.635802 1799.39877,316.407407 1801.92346,314.098765 C1824.92963,291.660494 1860.47901,289.518519 1878.00988,289.333333 C1879.97901,289.314815 1881.55309,290.895062 1881.55309,292.858025 L1881.55309,361.216049 Z" id="Fill-16"></path>
            <path d="M2196.1679,167.767901 C2197.68642,168.15679 2198.74815,169.52716 2198.74815,171.101235 L2198.74815,514.237037 C2198.74815,541.385185 2211.66173,561.132099 2216.83457,567.959259 C2217.9642,569.446914 2217.65556,571.57037 2216.18025,572.718519 L2161.6679,615.169136 C2160.47654,616.095062 2158.77284,616.193827 2157.54444,615.304938 C2122.18025,589.755556 2124.11852,508.835802 2124.11852,508.835802 L2124.11852,225.792593 C2124.11852,224.144444 2122.91481,222.706173 2121.3037,222.385185 C2007.49506,199.774074 2013.64321,260.385185 2013.64321,277.675309 L2013.64321,285.965432 C2013.64321,287.866667 2015.18025,289.409877 2017.08148,289.409877 L2077.53827,289.409877 C2079.43333,289.409877 2080.97654,290.946914 2080.97654,292.848148 L2080.98272,354.15679 C2080.98272,356.064198 2079.44568,357.601235 2077.54444,357.601235 L2017.14321,357.601235 C2015.24198,357.601235 2013.69877,359.144444 2013.69877,361.045679 L2013.64321,600.798765 C2013.64321,602.7 2012.1,604.237037 2010.19877,604.237037 L1943.00123,604.237037 C1941.1,604.237037 1939.56296,602.7 1939.56296,600.798765 L1939.61852,361.045679 C1939.61852,359.144444 1938.08148,357.601235 1936.18025,357.601235 L1902.93333,357.601235 C1901.0321,357.601235 1899.49506,356.064198 1899.48889,354.162963 L1899.43951,292.848148 C1899.43951,290.946914 1900.97654,289.409877 1902.87778,289.409877 L1936.11852,289.409877 C1938.01975,289.409877 1939.56296,287.866667 1939.56296,285.965432 L1939.56296,259.774074 C1939.56296,258.545679 1938.95185,237.767901 1941.37778,224.181481 C1941.40247,224.058025 1941.42716,223.934568 1941.45802,223.811111 C1955.07531,167.07037 2034.26667,127.57037 2157.85309,157.632099 C2157.85309,157.632099 2176.93951,162.811111 2196.1679,167.767901" id="Fill-18"></path>
            <path d="M2398.22469,360.241358 C2391.51481,360.241358 2373.21852,361.46358 2356.74938,371.833951 C2340.88519,382.204321 2319.53951,405.846296 2319.53951,446.858642 C2319.53951,461.500617 2320.76173,474.303086 2325.63827,488.340123 C2330.51481,502.982099 2351.87284,538.352469 2401.88519,538.352469 C2457.39753,538.352469 2482.4037,495.661111 2480.57037,447.469753 C2479.35432,399.889506 2451.9037,360.241358 2398.22469,360.241358 M2544.61975,517.00679 C2532.42222,548.117901 2492.77407,611.556173 2401.88519,611.556173 C2389.07654,611.556173 2362.84815,610.938889 2332.95926,597.525309 C2301.24321,583.494444 2243.29259,540.796914 2243.29259,448.685802 C2243.29259,415.747531 2252.44074,391.352469 2256.71235,380.370988 C2269.52099,349.870988 2308.5642,288.266049 2399.44691,288.266049 C2411.03951,288.266049 2437.87901,289.482099 2466.54568,302.290741 C2499.48395,316.321605 2556.21235,357.191975 2556.82346,448.685802 C2556.82346,459.667284 2556.21235,488.340123 2544.61975,517.00679" id="Fill-20"></path>
            <path d="M2905.23704,604.239506 L2837.09506,604.239506 C2835.50864,604.239506 2834.11975,603.190123 2833.68765,601.665432 L2782.16914,419.048148 C2781.21235,415.640741 2776.39136,415.603704 2775.37901,418.998765 L2720.96543,601.714815 C2720.52099,603.214815 2719.13827,604.239506 2717.57654,604.239506 L2649.42222,604.239506 C2647.84198,604.239506 2646.45309,603.190123 2646.02099,601.671605 L2558.52099,294.07284 C2557.87901,291.819753 2559.57654,289.57284 2561.92222,289.57284 L2631.63827,289.57284 C2633.2679,289.57284 2634.68148,290.683951 2635.07037,292.258025 L2684.20617,490.609877 C2685.16914,495.239506 2691.13827,495.239506 2692.29259,490.609877 L2744.82963,292.202469 C2745.23704,290.653086 2746.64444,289.57284 2748.24938,289.57284 L2808.84815,289.57284 C2810.45309,289.57284 2811.86049,290.659259 2812.2679,292.214815 L2864.19383,490.609877 C2865.73704,495.239506 2871.3358,495.239506 2872.39136,490.609877 L2922.63827,292.239506 C2923.03333,290.671605 2924.44691,289.57284 2926.0642,289.57284 L2995.75556,289.57284 C2998.11358,289.57284 2999.81111,291.844444 2999.14444,294.103704 L2908.62593,601.702469 C2908.18765,603.208642 2906.80494,604.239506 2905.23704,604.239506" id="Fill-22"></path>
        </g>
    </g>
</svg>