<?xml version="1.0" encoding="UTF-8"?>
<svg width="32px" height="32px" viewBox="0 0 32 32" version="1.1" xmlns="http://www.w3.org/2000/svg" xmlns:xlink="http://www.w3.org/1999/xlink">
    <!-- Generator: Sketch 48.2 (47327) - http://www.bohemiancoding.com/sketch -->
    <title>starflow_logo_star</title>
    <desc>Created with Sketch.</desc>
    <defs></defs>
    <g id="Page-1" stroke="none" stroke-width="1" fill="none" fill-rule="evenodd">
        <g id="starflow_logo_star" fill="#1E1E1E">
            <path d="M25.0739668,12.6468663 L20.6717795,12.6468663 C19.9379502,12.6468663 19.1566862,12.7317079 18.6654385,12.0492567 C18.5067971,11.828984 18.4381802,11.564206 18.355254,11.3094558 C18.2431458,10.9650191 18.1310377,10.6206951 18.0189296,10.2762584 L17.1590209,7.63422492 C17.0798128,7.39085453 17.0006048,7.14748414 16.9213967,6.90400108 C16.7776279,6.46244156 16.4461485,6.12172302 15.9479152,6.14436998 C15.4910323,6.16510153 15.1940303,6.48959539 15.0605146,6.8975788 C14.9718422,7.16821569 14.8831697,7.43896525 14.7946099,7.70960214 C14.5047062,8.59474926 14.2148025,9.48000905 13.9250115,10.3652688 L13.6040104,11.3456234 C13.5099298,11.6327103 13.4280176,11.9193465 13.2236315,12.1533652 C12.7043287,12.7481579 11.9365853,12.6468663 11.2286704,12.6468663 L8.43757255,12.6468663 L7.40358641,12.6468663 C7.21474901,12.6468663 6.99503963,12.6197124 6.81341321,12.6616262 C6.08927363,12.82838 5.83948097,13.7734684 6.39033182,14.2753071 C6.53263589,14.404992 6.70344585,14.5112412 6.85859447,14.6242507 C7.56617135,15.1398354 8.27386089,15.6553074 8.98143777,16.170892 C9.51076837,16.5564538 10.040099,16.9421283 10.5695422,17.3278028 C11.064508,17.6884642 11.3212863,18.271539 11.1607295,18.8823311 C11.1078866,19.0828864 11.0259744,19.2837796 10.961639,19.4812927 C10.4911229,20.9272058 10.0206068,22.3732315 9.55009071,23.8192572 C9.37015436,24.3722488 9.67177591,24.9830409 10.2698361,25.0857973 C10.6335396,25.1482173 10.8934727,24.97752 11.1664757,24.7794436 C11.7848168,24.3305604 12.4032705,23.8817899 13.0217243,23.4329067 L14.9662086,22.0218092 C15.2922799,21.7851991 15.6200412,21.5950096 16.0434606,21.6101076 C16.4431063,21.6244169 16.7425871,21.8249721 17.0501802,22.0487376 C18.3116501,22.9662215 19.5732326,23.8835926 20.8347025,24.8010765 C21.1278737,25.0142509 21.4360301,25.1669208 21.8124656,25.0518832 C22.3586969,24.8847914 22.5804343,24.3116316 22.4121032,23.7948075 C22.2029849,23.1525801 21.993754,22.51024 21.7846357,21.8680126 L20.9823021,19.4046761 C20.9095163,19.1810232 20.8078867,18.9406949 20.7746486,18.7091551 C20.6900323,18.1214606 20.9814007,17.6326918 21.4418891,17.2979448 C22.6942325,16.387672 23.9464633,15.4775118 25.1986941,14.5672389 C25.3404348,14.4642572 25.5119208,14.3630782 25.633606,14.2375622 C26.1647394,13.6893028 25.8295417,12.7406089 25.0739668,12.6468663" id="Fill-1"></path>
            <path d="M26.7227561,15.2926855 C26.5279471,15.4938041 26.3250258,15.63239 26.1770882,15.7337943 C26.1474556,15.7539625 26.118161,15.77368 26.0904438,15.7937355 L22.3334134,18.5245541 C22.3176394,18.5360466 22.3045695,18.5466377 22.294091,18.5558768 C22.3104284,18.6062409 22.3339767,18.6729425 22.3515535,18.7231939 C22.3769046,18.7950783 22.4016923,18.8660614 22.4244519,18.935805 L23.853915,23.3254857 C24.0685541,23.9842759 24.0130071,24.705148 23.7018085,25.3033208 C23.3999616,25.8838043 22.8862923,26.3092518 22.2555574,26.5020327 C22.026609,26.5721144 21.7910129,26.6078312 21.5560929,26.6078312 L21.5558675,26.6078312 C20.825531,26.6076059 20.2856093,26.2766897 19.943088,26.0276858 L16.1582278,23.2750089 C16.1266797,23.2520239 16.0525419,23.1982796 15.9902346,23.1574926 C15.9584612,23.1775481 15.9151954,23.2066173 15.8571696,23.2488691 L12.0570987,26.0068416 C11.7855604,26.2040166 11.2192736,26.6151549 10.4196441,26.6151549 C10.2850017,26.6151549 10.1482185,26.603437 10.0132381,26.580452 C9.31490027,26.4605696 8.70557293,26.0454879 8.34119337,25.4420194 C7.96385659,24.8170308 7.87878963,24.0544702 8.10807608,23.3502735 L9.51962435,19.0119709 C9.54711619,18.92758 9.5770868,18.8426257 9.6075081,18.7573334 C9.63161979,18.6896178 9.65674553,18.6221276 9.67770243,18.5542994 C9.67725174,18.554074 5.96551528,15.8499586 5.96551528,15.8499586 C5.92923506,15.8234808 5.89205348,15.7977917 5.85464655,15.7716519 C5.71606063,15.6752051 5.54367327,15.5553227 5.36903248,15.3962306 C4.69627109,14.7834104 4.42338078,13.8495892 4.65661073,12.9593719 C4.88995336,12.0684785 5.58603775,11.3881681 6.47287494,11.1838947 C6.6570928,11.1414176 6.84570486,11.1217001 7.06699164,11.1217001 C7.14394626,11.1217001 7.22168958,11.1242915 7.29830618,11.1273336 C7.33436105,11.1286857 7.3697399,11.1303758 7.40354134,11.1303758 L11.2286253,11.1303758 C11.3272128,11.1303758 11.4269271,11.1320659 11.5269794,11.1338686 C11.6094549,11.1353333 11.6922684,11.1369107 11.7748566,11.1369107 C11.93147,11.1369107 12.0252126,11.1298124 12.0801963,11.1224888 C12.0995758,11.0688572 12.1216594,11.0008036 12.1396869,10.9451439 L13.619176,6.42600361 C13.9665422,5.36520165 14.8325352,4.6768916 15.8791405,4.62934424 C15.9181248,4.62765416 15.9565458,4.62675279 15.9945161,4.62675279 C17.0761623,4.62675279 18.00604,5.33647042 18.3633212,6.43490465 L19.8365008,10.962946 C19.8517114,11.0115074 19.8704149,11.0706599 19.8869776,11.1185453 C19.9484962,11.1266576 20.053168,11.1337559 20.2302876,11.1337559 C20.2302876,11.1337559 20.5930898,11.1303758 20.6718471,11.1303758 L25.1677771,11.1303758 L25.260731,11.1419809 C26.1848625,11.2566805 26.9533946,11.8795284 27.2665087,12.7674923 C27.57951,13.6557943 27.3711805,14.6233042 26.7227561,15.2926855 M28.6966477,12.2632875 C28.1910908,10.8293176 26.946071,9.82293596 25.4487797,9.63725337 L25.2621958,9.6138177 L20.9921721,9.6138177 L19.8054035,5.96574062 C19.241032,4.23116324 17.7452055,3.11030739 15.9945161,3.11030739 C15.9346876,3.11030739 15.8744083,3.11165944 15.8104109,3.11447623 C14.1438871,3.19019146 12.7182549,4.30485038 12.1779952,5.95413546 L10.9798467,9.6138177 L7.40940026,9.61404304 L7.35768405,9.61201496 C7.26157528,9.6082968 7.16366376,9.60525467 7.06699164,9.60525467 C6.73269537,9.60525467 6.42713032,9.63826741 6.13249441,9.70620831 C4.69413034,10.0374625 3.56640152,11.1367981 3.1896281,12.5750495 C2.81296736,14.0127375 3.25678031,15.5234367 4.34789089,16.5173118 C4.59599348,16.7433307 4.83226557,16.9076058 5.006343,17.0288403 L5.07259383,17.0755989 C6.46498794,18.0900929 7.3385299,18.7264614 7.88769067,19.1264451 L6.66599385,22.8808841 C6.30048758,24.0041061 6.43783411,25.2234368 7.04310528,26.2259876 C7.63541924,27.2065674 8.62433679,27.8805682 9.75871322,28.0753772 C9.97797191,28.1127841 10.2003854,28.1314876 10.4196441,28.1314876 C11.7119859,28.1314876 12.610203,27.4792324 12.9478794,27.2340593 L15.9888825,25.0270504 L19.0516313,27.2543401 C19.3475066,27.4696553 20.247977,28.1239386 21.5560929,28.1242766 C21.9410913,28.1242766 22.3256391,28.0664761 22.6989197,27.9523399 C23.722202,27.6394513 24.5561963,26.9471977 25.0471059,26.0034614 C25.5448885,25.0463172 25.6357017,23.8990962 25.2958845,22.8557584 L24.081962,19.1283606 L26.977957,17.0233194 L27.0363208,16.983321 C27.2141164,16.8615231 27.5117945,16.6577004 27.8119513,16.3478539 C28.8631762,15.2628275 29.2022046,13.697708 28.6966477,12.2632875" id="Fill-3"></path>
            <path d="M28.9010338,17.4030448 C28.4944024,17.8226334 28.1033197,18.0905661 27.8931874,18.2344476 L27.853189,18.2619394 L25.8652135,19.7069511 L26.7377414,22.3861662 C27.2027366,23.8139391 27.0769952,25.387171 26.3922907,26.7031738 C25.7122056,28.010839 24.5581117,28.9695606 23.1422819,29.4026697 C22.6255705,29.5606351 22.0918457,29.6406319 21.5560929,29.6406319 C20.3598598,29.6402939 19.2171457,29.2501125 18.1594985,28.4805664 L15.9879812,26.9014756 L13.8385474,28.4611869 C13.4349582,28.7545834 12.2050363,29.6478429 10.4196441,29.6478429 C10.1148678,29.6478429 9.80671127,29.6218157 9.50396301,29.5703249 C7.93433667,29.300702 6.56504021,28.3676695 5.74512987,27.0100909 C4.91181163,25.6298653 4.72207286,23.9538771 5.22391162,22.4114046 L6.10500257,19.703909 L4.17967237,18.3012618 L4.13167432,18.2676857 C3.94272426,18.1359727 3.64729964,17.93046 3.32663662,17.6383028 C1.81717685,16.2634855 1.20255394,14.176021 1.72264548,12.1906369 C2.24296236,10.2049148 3.8023356,8.68666665 5.79222655,8.22843176 C6.19975928,8.13446374 6.61675642,8.08871912 7.06699164,8.08871912 C7.18349394,8.08871912 7.30157365,8.09221194 7.41739993,8.0967188 L9.88062376,8.0975075 L10.736927,5.48217718 C11.4751505,3.22818428 13.4395777,1.70418989 15.7415686,1.59951809 C15.8320438,1.59568726 15.913618,1.59377184 15.9945161,1.59377184 C18.4141361,1.59377184 20.4760241,3.12565324 21.247373,5.49659913 L22.0935358,8.09739483 L25.3568398,8.09739483 L25.6372791,8.13254833 C27.7076175,8.3894393 29.4286743,9.77912929 30.1267868,11.7589925 C30.8248992,13.7395317 30.3550592,15.902148 28.9010338,17.4030448 M31.5569258,11.254675 C30.6663705,8.72891846 28.4696147,6.9559201 25.8258912,6.62782076 L25.4515965,6.58094942 L23.1947868,6.58094942 L22.6894553,5.0274351 C21.7111288,2.02034605 19.083292,0.0773264346 15.9945161,0.0773264346 C15.8934498,0.0773264346 15.7912568,0.0796925356 15.6727264,0.0846500805 C12.735043,0.218053109 10.2319334,2.15160832 9.29574612,5.01030903 L8.78162617,6.58072408 L7.44669451,6.58027339 C7.32084047,6.57554119 7.19318369,6.57227372 7.06699164,6.57227372 C6.50081747,6.57227372 5.97250091,6.63063754 5.45184602,6.75063266 C2.91054086,7.33596099 0.91952319,9.27312169 0.255662848,11.8064272 C-0.407859479,14.339282 0.377686058,17.0035117 2.30526968,18.7591587 C2.69815512,19.1171159 3.05183089,19.3634158 3.26185052,19.5098887 L4.32242713,20.281463 L3.78194206,21.9423532 C3.14365814,23.9037383 3.38601449,26.0366094 4.44692912,27.7940591 C5.49466118,29.5287491 7.24433654,30.720926 9.24977616,31.06525 C9.63646467,31.1310502 10.0300261,31.1642883 10.4196441,31.1642883 C11.9319207,31.1642883 13.3822279,30.6676324 14.7292154,29.6886299 L15.9870798,28.775653 L17.2672531,29.7066574 C18.5894529,30.6687591 20.0322111,31.1566266 21.5560929,31.1569646 C22.2428255,31.1569646 22.9257273,31.0545462 23.5858695,30.852639 C25.393796,30.2996474 26.8684403,29.0745704 27.7375881,27.4029764 C28.608764,25.7286782 28.7698842,23.7287595 28.179711,21.9164388 L27.648465,20.2854065 L28.7501667,19.4855517 C28.9862134,19.3238681 29.4773484,18.9874311 29.9901163,18.4582132 C31.8471676,16.541446 32.4473685,13.7811075 31.5569258,11.254675" id="Fill-5"></path>
        </g>
    </g>
</svg>